<?xml version="1.0" encoding="UTF-8" standalone="no"?>
<!-- Uploaded to: SVG Repo, www.svgrepo.com, Generator: SVG Repo Mixer Tools -->

<svg
   width="800"
   height="800"
   viewBox="0 0 1024 1024"
   class="icon"
   version="1.1"
   id="svg26"
   xmlns="http://www.w3.org/2000/svg"
   xmlns:svg="http://www.w3.org/2000/svg">
  <defs
     id="defs26" />
  <path
     d="M 797.77498,904.87111 H 246.27322 c -20.8884,0 -37.8152,-16.85708 -37.8152,-37.65943 V 147.73734 c 0,-20.80235 16.9268,-37.65943 37.8152,-37.65943 h 551.50176 c 20.88839,0 37.8152,16.85708 37.8152,37.65943 v 719.47434 c 0,20.80235 -16.92681,37.65943 -37.8152,37.65943 z"
     fill="#68A240"
     id="path1"
     style="fill:#228b22;fill-opacity:1;stroke-width:1.19801" />
  <path
     d="m 745.19384,312.9606 c 0,0 18.72752,48.77791 -191.11685,48.77791 -214.40622,0 -264.1062,-48.77791 -264.1062,-48.77791 V 197.11303 c 0,-7.65144 6.60265,-13.86823 14.76593,-13.86823 h 425.57113 c 8.16328,0 14.76593,6.21679 14.76593,13.86823 V 312.9606 Z"
     fill="#ffd632"
     id="path3"
     style="stroke-width:1.19801" />
  <text
     xml:space="preserve"
     style="font-size:128.912px;text-align:start;writing-mode:lr-tb;direction:ltr;text-anchor:start;fill:#333336;fill-opacity:1;stroke-width:1.72648"
     x="379.65924"
     y="324.41034"
     id="text26"
     transform="scale(1.0258122,0.9748373)"><tspan
       id="tspan26"
       style="font-style:normal;font-variant:normal;font-weight:normal;font-stretch:normal;font-size:128.912px;font-family:'Noto Kufi Arabic';-inkscape-font-specification:'Noto Kufi Arabic';fill:#333336;fill-opacity:1;stroke-width:1.72648"
       x="379.65924"
       y="324.41034">GTB</tspan></text>
  <path
     d="M 797.77498,911.44652 H 246.27322 c -24.48985,0 -44.41786,-19.84587 -44.41786,-44.23484 V 147.73734 c 0,-24.38897 19.92801,-44.23488 44.41786,-44.23488 h 551.50176 c 24.48985,0 44.41786,19.84591 44.41786,44.23488 v 719.47434 c 0,24.38897 -19.92801,44.23484 -44.41786,44.23484 z M 246.27322,116.65337 c -17.1669,0 -31.21254,13.98778 -31.21254,31.08397 v 719.47434 c 0,17.09619 14.04564,31.08398 31.21254,31.08398 h 551.50176 c 17.1669,0 31.21254,-13.98779 31.21254,-31.08398 V 147.73734 c 0,-17.09619 -14.04564,-31.08397 -31.21254,-31.08397 z"
     fill="#333336"
     id="path2"
     style="stroke-width:1.19801" />
  <path
     d="m 554.07699,368.31397 c -214.64632,0 -266.62721,-48.53882 -268.66803,-50.69078 l -1.92078,-1.91286 v -118.5973 c 0,-11.23805 9.60386,-20.44369 21.36859,-20.44369 h 425.57112 c 11.76473,0 21.3686,9.20564 21.3686,20.44369 v 115.01069 c 0.60024,2.86929 1.20048,9.5643 -4.08164,17.21573 -17.6471,25.58451 -84.63404,38.97452 -193.63786,38.97452 z m -257.3835,-58.46178 c 4.80193,3.58662 19.08768,12.79225 48.97969,21.75878 35.29419,10.75984 100.12026,23.43253 208.52384,23.43253 144.17799,0 175.75068,-23.31297 182.71348,-33.23593 2.64106,-3.82572 2.16088,-6.57546 2.16088,-6.57546 l -0.4802,-1.07597 V 197.11303 c 0,-4.06483 -3.60145,-7.29277 -8.16329,-7.29277 H 304.85677 c -4.44179,0 -8.16328,3.22794 -8.16328,7.29277 z"
     fill="#333336"
     id="path4"
     style="stroke-width:1.19801" />
  <path
     d="m 427.06592,498.62754 h -95.91858 c -22.68912,0 -41.0565,-18.29173 -41.0565,-40.88738 V 454.034 c 0,-22.59565 18.36738,-40.88738 41.0565,-40.88738 h 95.79853 c 22.68912,0 41.05651,18.29173 41.05651,40.88738 v 3.70616 c 0.12004,22.59565 -18.24734,40.88738 -40.93646,40.88738 z"
     fill="#d5d9cf"
     id="path7"
     style="stroke-width:1.19801" />
  <path
     d="m 427.06592,505.20299 h -95.91858 c -26.29057,0 -47.65916,-21.28056 -47.65916,-47.46283 V 454.034 c 0,-26.18227 21.36859,-47.46284 47.65916,-47.46284 h 95.79853 c 26.29057,0 47.65916,21.28057 47.65916,47.46284 v 3.70616 c 0.12005,26.18227 -21.24855,47.46283 -47.53911,47.46283 z m -95.91858,-85.60046 c -19.08767,0 -34.45385,15.42242 -34.45385,34.31191 v 3.70616 c 0,19.00905 15.48623,34.31193 34.45385,34.31193 h 95.79853 c 19.08766,0 34.45385,-15.42243 34.45385,-34.31193 v -3.70616 c 0,-19.00904 -15.48623,-34.31191 -34.45385,-34.31191 z"
     fill="#333336"
     id="path8"
     style="stroke-width:1.19801" />
  <path
     d="m 290.09084,455.8273 a 45.498294,42.800235 0 1 0 90.99658,0 45.498294,42.800235 0 1 0 -90.99658,0 z"
     fill="#FFD632"
     id="path9"
     style="fill:#8b0000;fill-opacity:0.548387;stroke-width:1.19801" />
  <path
     d="m 335.58913,505.20299 c -28.69153,0 -52.10095,-22.11744 -52.10095,-49.37569 0,-27.25824 23.40942,-49.37569 52.10095,-49.37569 28.69154,0 52.10095,22.11745 52.10095,49.37569 0,27.25825 -23.40941,49.37569 -52.10095,49.37569 z m 0,-85.60046 c -21.36859,0 -38.89564,16.2593 -38.89564,36.22477 0,19.96547 17.407,36.22478 38.89564,36.22478 21.48864,0 38.89563,-16.25931 38.89563,-36.22478 0,-19.96547 -17.40699,-36.22477 -38.89563,-36.22477 z"
     fill="#333336"
     id="path10"
     style="stroke-width:1.19801" />
  <path
     d="M 490.57145,672.93688 H 307.61788 c -9.72391,0 -17.52704,-7.77099 -17.52704,-17.45485 v -69.69982 c 0,-9.68386 7.80313,-17.45485 17.52704,-17.45485 H 490.4514 c 9.72391,0 17.52704,7.77099 17.52704,17.45485 v 69.69982 c 0,9.68386 -7.80313,17.45485 -17.40699,17.45485 z"
     fill="#FFD632"
     id="path11"
     style="fill:#113399;fill-opacity:0.53629;stroke-width:1.19801" />
  <path
     d="M 490.57145,679.51233 H 307.61788 c -13.32536,0 -24.1297,-10.75984 -24.1297,-24.0303 v -69.69982 c 0,-13.27047 10.80434,-24.0303 24.1297,-24.0303 H 490.4514 c 13.32536,0 24.12971,10.75983 24.12971,24.0303 v 69.69982 c 0,13.27046 -10.80435,24.0303 -24.00966,24.0303 z M 307.61788,574.90281 c -6.00241,0 -10.92439,4.9017 -10.92439,10.8794 v 69.69982 c 0,5.97768 4.92198,10.87938 10.92439,10.87938 H 490.4514 c 6.00241,0 10.92439,-4.9017 10.92439,-10.87938 v -69.69982 c 0,-5.9777 -4.92198,-10.8794 -10.92439,-10.8794 z"
     fill="#333336"
     id="path12"
     style="stroke-width:1.19801" />
  <path
     d="M 490.57145,837.56236 H 307.61788 c -9.72391,0 -17.52704,-7.771 -17.52704,-17.45484 v -69.69983 c 0,-9.68385 7.80313,-17.45484 17.52704,-17.45484 H 490.4514 c 9.72391,0 17.52704,7.77099 17.52704,17.45484 v 69.69983 c 0,9.5643 -7.80313,17.45484 -17.40699,17.45484 z"
     fill="#FFD632"
     id="path13"
     style="fill:#113399;fill-opacity:0.53629;stroke-width:1.19801" />
  <path
     d="M 490.57145,844.13782 H 307.61788 c -13.32536,0 -24.1297,-10.75984 -24.1297,-24.0303 v -69.69983 c 0,-13.27046 10.80434,-24.0303 24.1297,-24.0303 H 490.4514 c 13.32536,0 24.12971,10.75984 24.12971,24.0303 v 69.69983 c 0,13.27046 -10.80435,24.0303 -24.00966,24.0303 z M 307.61788,739.52831 c -6.00241,0 -10.92439,4.9017 -10.92439,10.87938 v 69.69983 c 0,5.97768 4.92198,10.87939 10.92439,10.87939 H 490.4514 c 6.00241,0 10.92439,-4.90171 10.92439,-10.87939 v -69.69983 c 0,-5.97768 -4.92198,-10.87938 -10.92439,-10.87938 z"
     fill="#333336"
     id="path14"
     style="stroke-width:1.19801" />
  <path
     d="M 727.06655,835.76906 H 600.05548 c -9.24373,0 -16.68672,-7.41234 -16.68672,-16.61797 V 587.21685 c 0,-9.20563 7.44299,-16.61797 16.68672,-16.61797 H 727.1866 c 9.24371,0 16.6867,7.41234 16.6867,16.61797 v 231.93424 c -0.12005,9.20563 -7.56304,16.61797 -16.80675,16.61797 z"
     fill="#d8a128"
     id="path15"
     style="stroke-width:1.19801" />
  <path
     d="M 727.06655,842.34451 H 600.05548 c -12.84517,0 -23.28937,-10.40117 -23.28937,-23.19342 V 587.21685 c 0,-12.79225 10.4442,-23.19342 23.28937,-23.19342 H 727.1866 c 12.84515,0 23.28935,10.40117 23.28935,23.19342 v 231.93424 c -0.12004,12.79225 -10.56424,23.19342 -23.4094,23.19342 z M 600.05548,577.17433 c -5.64228,0 -10.08407,4.54305 -10.08407,10.04252 v 231.93424 c 0,5.61902 4.56184,10.04251 10.08407,10.04251 H 727.1866 c 5.64226,0 10.08404,-4.54304 10.08404,-10.04251 V 587.21685 c 0,-5.61903 -4.56183,-10.04252 -10.08404,-10.04252 z"
     fill="#333336"
     id="path16"
     style="stroke-width:1.19801" />
  <path
     d="m 554.55717,441.12219 -18.24733,33.35549"
     fill="#d8a128"
     id="path17"
     style="stroke-width:1.19801" />
  <path
     d="m 536.18979,481.05313 c -1.08043,0 -2.16087,-0.2391 -3.12125,-0.83687 -3.24131,-1.79331 -4.4418,-5.73858 -2.64106,-8.96653 l 18.24733,-33.35549 c 1.80072,-3.22795 5.76232,-4.30393 9.00362,-2.63018 3.2413,1.7933 4.44179,5.73858 2.64106,8.96652 l -18.24733,33.35549 c -1.20049,2.15198 -3.48141,3.46706 -5.88237,3.46706 z"
     fill="#333336"
     id="path18"
     style="stroke-width:1.19801" />
  <path
     d="m 602.57648,441.12219 -18.24733,33.35549"
     fill="#d8a128"
     id="path19"
     style="stroke-width:1.19801" />
  <path
     d="m 584.32915,481.05313 c -1.08044,0 -2.16088,-0.2391 -3.12125,-0.83687 -3.24131,-1.79331 -4.44179,-5.73858 -2.64106,-8.96653 l 18.24733,-33.35549 c 1.80072,-3.22795 5.76231,-4.30393 9.00362,-2.63018 3.24131,1.7933 4.44179,5.73858 2.64106,8.96652 l -18.24733,33.35549 c -1.20049,2.15198 -3.48141,3.46706 -5.88237,3.46706 z"
     fill="#333336"
     id="path20"
     style="stroke-width:1.19801" />
  <path
     d="m 650.71584,441.12219 -18.24733,33.35549"
     fill="#d8a128"
     id="path21"
     style="stroke-width:1.19801" />
  <path
     d="m 632.46851,481.05313 c -1.08044,0 -2.16087,-0.2391 -3.12126,-0.83687 -3.24131,-1.79331 -4.44179,-5.73858 -2.64106,-8.96653 l 18.24733,-33.35549 c 1.80072,-3.22795 5.76232,-4.30393 9.00362,-2.63018 3.24131,1.7933 4.44179,5.73858 2.64106,8.96652 l -18.24733,33.35549 c -1.20048,2.15198 -3.4814,3.46706 -5.88236,3.46706 z"
     fill="#333336"
     id="path22"
     style="stroke-width:1.19801" />
  <path
     d="m 698.8552,441.12219 -18.24733,33.35549"
     fill="#d8a128"
     id="path23"
     style="stroke-width:1.19801" />
  <path
     d="m 680.60787,481.05313 c -1.08045,0 -2.16088,-0.2391 -3.12127,-0.83687 -3.24129,-1.79331 -4.44178,-5.73858 -2.64105,-8.96653 l 18.24733,-33.35549 c 1.80073,-3.22795 5.76232,-4.30393 9.00362,-2.63018 3.24131,1.7933 4.4418,5.73858 2.64106,8.96652 l -18.24734,33.35549 c -1.20047,2.15198 -3.48139,3.46706 -5.88235,3.46706 z"
     fill="#333336"
     id="path24"
     style="stroke-width:1.19801" />
  <path
     d="m 746.99455,441.12219 -18.24733,33.35549"
     fill="#d8a128"
     id="path25"
     style="stroke-width:1.19801" />
  <path
     d="m 728.74722,481.05313 c -1.08044,0 -2.16087,-0.2391 -3.12126,-0.83687 -3.2413,-1.79331 -4.44179,-5.73858 -2.64106,-8.96653 l 18.24733,-33.35549 c 1.80073,-3.22795 5.76232,-4.30393 9.00363,-2.63018 3.2413,1.7933 4.44179,5.73858 2.64106,8.96652 l -18.24734,33.35549 c -1.20048,2.15198 -3.48139,3.46706 -5.88236,3.46706 z"
     fill="#333336"
     id="path26"
     style="stroke-width:1.19801" />
</svg>
